<!DOCTYPE svg PUBLIC "-//W3C//DTD SVG 1.1//EN" "http://www.w3.org/Graphics/SVG/1.1/DTD/svg11.dtd">
<!-- Uploaded to: SVG Repo, www.svgrepo.com, Transformed by: SVG Repo Mixer Tools -->
<svg height="800px" width="800px" version="1.1" id="Layer_1" xmlns="http://www.w3.org/2000/svg" xmlns:xlink="http://www.w3.org/1999/xlink" viewBox="-48.13 -48.13 577.57 577.57" xml:space="preserve" fill="#ffc64d" stroke="#ffc64d">
<g id="SVGRepo_bgCarrier" stroke-width="0"/>
<g id="SVGRepo_iconCarrier"> <g> <ellipse style="fill:#2E6D92#2f6d92;" cx="341.632" cy="233.229" rx="136" ry="133.456"/> <path style="fill:#2E6D92#2f6d92;" d="M336,65.453c-4.416,0-8-3.584-8-8v-48c0-4.416,3.584-8,8-8s8,3.584,8,8v48 C344,61.869,340.416,65.453,336,65.453z"/> <path style="fill:#2E6D92#2f6d92;" d="M439.36,98.757c-2.048,0-4.096-0.784-5.656-2.344c-3.128-3.128-3.128-8.184,0-11.312l33.944-33.944 c3.128-3.128,8.184-3.128,11.312,0s3.128,8.184,0,11.312l-33.944,33.944C443.456,97.973,441.408,98.757,439.36,98.757z"/> <path style="fill:#2E6D92#2f6d92;" d="M208.968,122.421c-2.048,0-4.096-0.784-5.656-2.344l-33.936-33.936 c-3.128-3.128-3.128-8.184,0-11.312s8.184-3.128,11.312,0l33.936,33.936c3.128,3.128,3.128,8.184,0,11.312 C213.064,121.637,211.016,122.421,208.968,122.421z"/> </g> <path style="fill:#2E6D92;" d="M426.208,361.453c-1.12,0-42.648,0-42.648,0c0.744-8,1.24-8.688,1.256-13.472 c0.128-42.672-28.36-79.952-70.032-89.136c-23.752-5.232-46.424-1.368-65.184,8.76c-22.888-34.064-60.808-57.04-104.272-59.696 c-5.592-0.768-11.256-1.224-17.056-1.224C57.432,206.685,0,265.949,0,339.005c0,38.072,15.688,72.304,40.648,96.44 c22.072,24.488,52.72,40.312,89.008,42.944c0,0,295.432,1.464,296.552,1.464c29.712,0,53.792-27.208,53.792-59.208 C480,388.661,455.912,361.453,426.208,361.453z"/> </g>
</svg>